# xmcd
#
# Track frame offsets:
#	150
#	14100
#	30900
#	54187
#	72450
#	84525
#	93262
#	117562
#	129000
#	148837
#	165375
#	183112
#	197175
#	210375
#
# Disc length: 3108 seconds
#
# Revision: 2
# Processed by: cddbd v1.4PL0 Copyright (c) Steve Scherf et al.
# Submitted via: EasyCDDAExtractor 5.0.6
#
DISCID=b80c220e
DTITLE=Sleepy LaBeef - Strange Things Happening
DYEAR=1994
DGENRE=Rockabilly
TTITLE0=Sittin' On Top of the World
TTITLE1=Playboy
TTITLE2=Young Fashioned Ways
TTITLE3=Waltz Across Texas
TTITLE4=I'll Be There
TTITLE5=I'll Keep On Loving You
TTITLE6=Strange Things Happening
TTITLE7=Trying To Get To You
TTITLE8=You're My Baby
TTITLE9=Life Turned Her That Way
TTITLE10=Standing In the Need of Prayer
TTITLE11=Just Call Me Lonesome
TTITLE12=Inside Looking Out
TTITLE13=Stagger Lee
EXTD=
EXTT0=
EXTT1=
EXTT2=
EXTT3=
EXTT4=
EXTT5=
EXTT6=
EXTT7=
EXTT8=
EXTT9=
EXTT10=
EXTT11=
EXTT12=
EXTT13=
PLAYORDER=
